<svg width="164" height="164" viewBox="0 0 164 164" fill="none" xmlns="http://www.w3.org/2000/svg">
<path d="M25.6938 112.842C24.242 114.054 21.6888 112.281 18.1544 113.262C14.0293 114.425 10.3847 118.483 9.77397 121.82C8.64256 127.922 13.6888 132.842 14.3797 133.844C11.6149 133.384 8.77674 133.92 6.36971 135.357C0.912902 138.743 0.983004 145.447 1.00303 145.928C1.13208 149.047 2.38802 152.012 4.53746 154.274C4.80641 154.563 5.13678 154.788 5.50419 154.932C5.87159 155.076 6.26664 155.135 6.66011 155.106C12.7445 154.715 18.8496 155.424 24.6826 157.2C31.6913 159.385 36.0267 162.551 43.4659 162.341C45.9991 162.27 49.5535 162.471 52.8577 160.336C54.0546 159.546 55.1106 158.561 55.9815 157.421C72.3385 163.913 90.5402 163.995 106.955 157.651C108.373 159.331 110.126 160.696 112.102 161.659C113.543 162.361 117.598 164.024 125.959 162.11C134.049 160.256 133.678 157.912 140.267 156.288C150.119 153.884 154.284 158.292 158.82 154.725C162.645 151.719 164.217 144.996 161.954 141.078C159 135.988 150.66 137.601 149.428 133.252C148.737 130.797 152.212 129.515 152.842 124.635C153.013 123.333 154.224 117.721 150.61 114.455C147.606 111.769 141.108 111.649 136.472 114.014C137.466 112.499 138.219 110.84 138.705 109.094C141.819 91.8697 134.94 74.9058 131.105 68.8237C130.765 67.9319 130.284 66.6193 129.754 65.0161C127.65 58.9393 126.304 52.6256 125.749 46.2185C125.398 41.1284 125.949 38.7436 125.969 36.1985C126.069 23.9841 115.516 9.79579 103.17 5.13649C81.7737 -2.99976 55.4509 0.938089 44.5974 16.3188C39.9015 22.9721 38.1493 31.5192 36.7676 38.2526C35.8939 42.5165 35.3483 46.8411 35.1356 51.1885C34.8087 57.8513 33.2788 64.3998 30.62 70.5171C29.6187 72.6914 28.8678 74.6253 28.277 76.2786C25.033 85.2966 23.1606 91.1583 23.2708 98.6533C23.3809 106.148 27.6162 111.309 25.6337 112.942" fill="white"/>
<path d="M25.6938 112.842C24.242 114.054 21.6888 112.281 18.1544 113.262C14.0293 114.425 10.3847 118.483 9.77397 121.82C8.64256 127.922 13.6888 132.842 14.3797 133.844C11.6149 133.384 8.77674 133.92 6.36971 135.357C0.912902 138.743 0.983004 145.447 1.00303 145.928C1.13208 149.047 2.38802 152.012 4.53746 154.274C4.80641 154.563 5.13678 154.788 5.50419 154.932C5.87159 155.076 6.26664 155.135 6.66011 155.106C12.7445 154.715 18.8496 155.424 24.6826 157.2C31.6913 159.385 36.0267 162.551 43.4659 162.341C45.9991 162.27 49.5535 162.471 52.8577 160.336C54.0546 159.546 55.1106 158.561 55.9815 157.421C72.3385 163.913 90.5402 163.995 106.955 157.651C108.373 159.331 110.126 160.696 112.102 161.659C113.543 162.361 117.598 164.024 125.959 162.11C134.049 160.256 133.678 157.912 140.267 156.288C150.119 153.884 154.284 158.292 158.82 154.725C162.645 151.719 164.217 144.996 161.954 141.078C159 135.988 150.66 137.601 149.428 133.252C148.737 130.797 152.212 129.515 152.842 124.635C153.013 123.333 154.224 117.721 150.61 114.455C147.606 111.769 141.108 111.649 136.472 114.014C137.466 112.499 138.219 110.84 138.705 109.094C141.819 91.8697 134.94 74.9058 131.105 68.8237C130.765 67.9319 130.284 66.6193 129.754 65.0161C127.65 58.9393 126.304 52.6256 125.749 46.2185C125.398 41.1284 125.949 38.7436 125.969 36.1985C126.069 23.9841 115.516 9.79579 103.17 5.13649C81.7737 -2.99976 55.4509 0.938089 44.5974 16.3188C39.9015 22.9721 38.1493 31.5192 36.7676 38.2526C35.8939 42.5165 35.3483 46.8411 35.1356 51.1885C34.8087 57.8513 33.2788 64.3998 30.62 70.5171C29.6187 72.6914 28.8678 74.6253 28.277 76.2786C25.033 85.2966 23.1606 91.1583 23.2708 98.6533C23.3809 106.148 27.6763 111.208 25.6938 112.842Z" stroke="white" stroke-width="0.75" stroke-miterlimit="10"/>
<path d="M54.6802 141.098C53.4987 130.737 50.2647 120.056 47.4211 111.679C47.0507 110.528 46.2861 109.545 45.262 108.904C44.238 108.262 43.0205 108.003 41.8242 108.172C41.6586 108.199 41.4948 108.236 41.3336 108.283C40.1227 108.564 38.9967 109.13 38.0494 109.936C37.5434 110.455 37.1526 111.074 36.9024 111.755C36.6522 112.435 36.5484 113.16 36.5976 113.884C36.7979 115.246 37.4287 118.102 35.9869 120.196C35.4846 120.842 34.8546 121.378 34.1362 121.769C33.4178 122.161 32.6265 122.399 31.8117 122.471C28.6277 122.882 27.6665 119.836 23.5113 119.465C23.1008 119.465 18.9256 119.054 17.2535 121.469C15.7817 123.533 16.853 126.759 17.7742 129.545C19.0958 133.553 20.5476 134.184 19.7767 136.559C19.3423 137.896 18.4197 139.02 17.1934 139.705C14.6302 141.168 13.629 139.565 11.6165 140.547C9.79419 141.429 9.09333 143.483 8.7529 144.475C8.57262 145.009 8.44518 145.559 8.37242 146.118C8.3063 146.722 8.3704 147.333 8.56034 147.91C8.75029 148.487 9.06168 149.017 9.47353 149.463C9.88538 149.909 10.3881 150.262 10.9478 150.498C11.5074 150.733 12.1111 150.845 12.7179 150.828C17.5728 150.736 22.4116 151.413 27.0558 152.832C31.4913 154.204 35.5463 156.258 42.0745 156.228C44.9781 156.228 47.4912 156.168 49.7641 154.635C51.0156 153.783 55.7716 151.058 54.6602 141.218" fill="#F7C120"/>
<path d="M54.6802 141.098C53.4987 130.737 50.2647 120.056 47.4211 111.679C47.0507 110.528 46.2861 109.545 45.262 108.904C44.238 108.262 43.0205 108.003 41.8242 108.172C41.6586 108.199 41.4948 108.236 41.3336 108.283C40.1227 108.564 38.9967 109.13 38.0494 109.936C37.5434 110.455 37.1526 111.074 36.9024 111.755C36.6522 112.435 36.5484 113.16 36.5976 113.884C36.7979 115.246 37.4287 118.102 35.9869 120.196C35.4846 120.842 34.8546 121.378 34.1362 121.769C33.4178 122.161 32.6265 122.399 31.8117 122.471C28.6277 122.882 27.6665 119.836 23.5113 119.465C23.1008 119.465 18.9256 119.054 17.2535 121.469C15.7817 123.533 16.853 126.759 17.7742 129.545C19.0958 133.553 20.5476 134.184 19.7767 136.559C19.3423 137.896 18.4197 139.02 17.1934 139.705C14.6302 141.168 13.629 139.565 11.6165 140.547C9.79419 141.429 9.09333 143.483 8.7529 144.475C8.57262 145.009 8.44518 145.559 8.37242 146.118C8.3063 146.722 8.3704 147.333 8.56034 147.91C8.75029 148.487 9.06168 149.017 9.47353 149.463C9.88538 149.909 10.3881 150.262 10.9478 150.498C11.5074 150.733 12.1111 150.845 12.7179 150.828C17.5728 150.736 22.4116 151.413 27.0558 152.832C31.4913 154.204 35.5463 156.258 42.0745 156.228C44.9781 156.228 47.4912 156.168 49.7641 154.635C51.0356 153.663 55.8016 150.938 54.6802 141.098Z" stroke="white" stroke-width="0.75" stroke-miterlimit="10"/>
<path d="M113.894 108.663C109.809 111.669 115.085 117.681 110.89 129.164C109.538 132.573 108.587 136.127 108.056 139.755C107.646 142.581 106.995 147.09 109.688 151.208C111.032 153.209 112.903 154.798 115.095 155.797C116.153 156.285 117.299 156.555 118.463 156.591C119.627 156.627 120.787 156.429 121.874 156.008C125.958 154.463 130.209 153.401 134.539 152.841C145.243 151.469 151.28 154.445 154.925 150.447C157.748 147.35 157.929 141.208 155.796 139.425C153.353 137.32 148.377 141.158 145.012 138.423C143.936 137.502 143.226 136.226 143.01 134.825C142.569 131.819 146.184 130.407 147.145 126.749C147.471 125.251 147.346 123.689 146.784 122.262C146.223 120.835 145.251 119.607 143.991 118.733C141.528 117.32 136.762 119.334 134.179 120.737C132.967 121.424 131.635 121.869 130.254 122.05C130.074 122.05 127.25 123.052 125.668 121.178C123.486 118.503 127.931 114.655 126.329 111.739C124.617 108.633 116.857 106.479 113.904 108.633" fill="#F7C120"/>
<path d="M113.894 108.663C109.809 111.669 115.085 117.681 110.89 129.164C109.538 132.573 108.587 136.127 108.056 139.755C107.646 142.581 106.995 147.09 109.688 151.208C111.032 153.209 112.903 154.798 115.095 155.797C116.153 156.285 117.299 156.555 118.463 156.591C119.627 156.627 120.787 156.429 121.874 156.008C125.958 154.464 130.209 153.401 134.539 152.842C145.243 151.469 151.28 154.445 154.925 150.447C157.748 147.351 157.929 141.208 155.796 139.425C153.353 137.321 148.377 141.158 145.012 138.423C143.936 137.502 143.226 136.226 143.01 134.826C142.569 131.82 146.184 130.407 147.145 126.749C147.471 125.251 147.346 123.689 146.784 122.262C146.223 120.835 145.251 119.607 143.991 118.733C141.528 117.321 136.762 119.335 134.179 120.737C132.967 121.424 131.635 121.869 130.254 122.05C130.074 122.05 127.25 123.052 125.668 121.178C123.486 118.503 127.931 114.655 126.329 111.739C124.607 108.663 116.847 106.509 113.894 108.663Z" stroke="white" stroke-width="0.75" stroke-miterlimit="10"/>
<path d="M83.8064 36.0379C83.8064 43.4828 79.1606 49.5149 73.4235 49.5149C67.6863 49.5149 63.0405 43.5029 63.0405 36.0379C63.0405 28.573 67.6963 22.571 73.4235 22.571C79.1506 22.571 83.8064 28.5831 83.8064 36.0379Z" fill="white"/>
<path d="M73.4332 49.5151C79.1676 49.5151 83.8162 43.4813 83.8162 36.0382C83.8162 28.5951 79.1676 22.5613 73.4332 22.5613C67.6989 22.5613 63.0503 28.5951 63.0503 36.0382C63.0503 43.4813 67.6989 49.5151 73.4332 49.5151Z" stroke="black" stroke-width="0.75" stroke-miterlimit="10"/>
<path d="M102.079 41.3289C102.079 48.7738 97.4336 54.8059 91.6964 54.8059C85.9593 54.8059 81.3135 48.7938 81.3135 41.3289C81.3135 33.864 85.9593 27.8621 91.6964 27.8621C97.4336 27.8621 102.079 33.874 102.079 41.3289Z" fill="white"/>
<path d="M91.6959 54.8056C97.4303 54.8056 102.079 48.7718 102.079 41.3287C102.079 33.8856 97.4303 27.8518 91.6959 27.8518C85.9616 27.8518 81.313 33.8856 81.313 41.3287C81.313 48.7718 85.9616 54.8056 91.6959 54.8056Z" stroke="black" stroke-width="0.75" stroke-miterlimit="10"/>
<path d="M89.1834 39.976C88.3824 42.8718 86.3098 44.8357 84.5476 44.3548C82.7855 43.8738 81.9945 41.1183 82.7854 38.2225C83.5764 35.3267 85.659 33.3528 87.4212 33.8437C89.1834 34.3347 89.9744 37.0702 89.1834 39.976Z" fill="black"/>
<path d="M89.1834 39.976C88.3824 42.8718 86.3098 44.8357 84.5476 44.3548C82.7855 43.8738 81.9945 41.1183 82.7854 38.2225C83.5764 35.3267 85.659 33.3528 87.4212 33.8437C89.1834 34.3347 89.9744 37.0702 89.1834 39.976Z" stroke="black" stroke-width="0.25" stroke-miterlimit="10"/>
<path d="M61.4786 51.6195C60.4774 55.8279 66.5549 65.387 78.7201 68.9742C81.3405 69.6834 84.0994 69.7041 86.7301 69.0343C99.2958 65.5574 105.433 56.0885 104.452 51.9201C102.45 43.1626 63.6213 42.842 61.3985 51.6195" fill="#F7C120"/>
<path d="M80.9126 37.2407C81.3031 40.8879 79.8213 44.0342 77.6085 44.2547C75.3957 44.4751 73.2731 41.7397 72.8826 38.0924C72.4921 34.4451 73.964 31.2988 76.1867 31.0784C78.4095 30.8579 80.5121 33.5934 80.9126 37.2407Z" fill="black"/>
<path d="M80.9126 37.2407C81.3031 40.8879 79.8213 44.0342 77.6085 44.2547C75.3957 44.4751 73.2731 41.7397 72.8826 38.0924C72.4921 34.4451 73.964 31.2988 76.1867 31.0784C78.4095 30.8579 80.5121 33.5934 80.9126 37.2407Z" stroke="black" stroke-width="0.3" stroke-miterlimit="10"/>
</svg>
